<?xml version="1.0" encoding="UTF-8"?> <svg xmlns="http://www.w3.org/2000/svg" id="Laag_2" viewBox="0 0 305.64 83.04"><g><path d="M41.52,83.04c-9.75,0-17.67-7.93-17.67-17.67V17.67C23.85,7.93,31.77,0,41.52,0s17.67,7.93,17.67,17.67v47.69c0,9.75-7.93,17.67-17.67,17.67Zm0-78.7c-7.35,0-13.34,5.98-13.34,13.34v47.69c0,7.35,5.98,13.34,13.34,13.34s13.34-5.98,13.34-13.34V17.67c0-7.35-5.98-13.34-13.34-13.34Z" style="fill:#5f44ff;"></path><path d="M65.37,59.19H17.67C7.93,59.19,0,51.27,0,41.52S7.93,23.85,17.67,23.85h47.69c9.75,0,17.67,7.93,17.67,17.67s-7.93,17.67-17.67,17.67ZM17.67,28.18c-7.35,0-13.34,5.98-13.34,13.34s5.98,13.34,13.34,13.34h47.69c7.35,0,13.34-5.98,13.34-13.34s-5.98-13.34-13.34-13.34H17.67Z" style="fill:#5f44ff;"></path></g><g><path d="M106.7,55.63c-.88,0-1.68-.21-2.4-.64-.72-.43-1.3-1-1.72-1.72-.43-.72-.64-1.52-.64-2.4v-1.54h3.96v1.43c0,.24,.09,.46,.27,.64,.18,.18,.4,.27,.64,.27h16.64c.24,0,.45-.09,.62-.27,.17-.18,.26-.4,.26-.64v-5.42c0-.27-.09-.49-.26-.66-.17-.17-.38-.26-.62-.26h-16.75c-.88,0-1.68-.21-2.4-.64-.72-.43-1.3-1-1.72-1.72-.43-.72-.64-1.52-.64-2.4v-5.64c0-.88,.21-1.68,.64-2.4,.43-.72,1-1.29,1.72-1.72,.72-.43,1.52-.64,2.4-.64h16.86c.88,0,1.68,.21,2.4,.64,.72,.43,1.29,1,1.72,1.72,.43,.72,.64,1.52,.64,2.4v1.54h-3.99v-1.43c0-.24-.09-.46-.26-.64-.17-.18-.38-.27-.62-.27h-16.64c-.24,0-.46,.09-.64,.27-.18,.18-.27,.4-.27,.64v5.42c0,.27,.09,.49,.27,.66,.18,.17,.4,.26,.64,.26h16.75c.88,0,1.68,.21,2.4,.64,.72,.43,1.29,1,1.72,1.72,.43,.72,.64,1.52,.64,2.4v5.64c0,.88-.21,1.68-.64,2.4-.43,.72-1,1.29-1.72,1.72-.72,.43-1.52,.64-2.4,.64h-16.86Z" style="fill:#fff;"></path><path d="M138.16,54.97c-.72-.44-1.3-1.02-1.74-1.74-.44-.72-.66-1.51-.66-2.36v-11.73c0-.85,.22-1.64,.66-2.36,.44-.72,1.02-1.3,1.74-1.74,.72-.44,1.51-.66,2.36-.66h12.09c.88,0,1.68,.22,2.4,.66,.72,.44,1.29,1.02,1.72,1.74,.43,.72,.64,1.51,.64,2.36v7.84h-17.66v3.77c0,.24,.09,.46,.27,.64,.18,.18,.4,.27,.64,.27h16.75v3.96h-16.86c-.86,0-1.64-.22-2.36-.66Zm1.56-11.69h13.67v-4.03c0-.24-.09-.46-.26-.64-.17-.18-.38-.27-.62-.27h-11.87c-.24,0-.46,.09-.64,.27s-.27,.4-.27,.64v4.03Z" style="fill:#fff;"></path><path d="M166.37,54.97c-.72-.44-1.3-1.02-1.74-1.74-.44-.72-.66-1.51-.66-2.36v-11.73c0-.85,.22-1.64,.66-2.36,.44-.72,1.02-1.3,1.74-1.74,.72-.44,1.51-.66,2.36-.66h16.78v3.96h-16.67c-.24,0-.46,.09-.64,.27s-.27,.4-.27,.64v11.51c0,.24,.09,.46,.27,.64,.18,.18,.4,.27,.64,.27h16.75v3.96h-16.86c-.86,0-1.64-.22-2.36-.66Z" style="fill:#fff;"></path><path d="M193.36,55.63V29.24h21.58c.88,0,1.69,.21,2.42,.64,.73,.43,1.31,1,1.74,1.72,.43,.72,.64,1.52,.64,2.4v16.86c0,.88-.21,1.68-.64,2.4-.43,.72-1.01,1.29-1.74,1.72-.73,.43-1.54,.64-2.42,.64h-21.58Zm4.84-3.96h16.67c.24,0,.45-.09,.62-.27,.17-.18,.26-.4,.26-.64v-16.64c0-.24-.09-.46-.26-.64-.17-.18-.38-.27-.62-.27h-16.67c-.24,0-.45,.09-.62,.27-.17,.18-.26,.4-.26,.64v16.64c0,.24,.09,.46,.26,.64,.17,.18,.38,.27,.62,.27Z" style="fill:#5f44ff;"></path><path d="M229.73,54.97c-.72-.44-1.3-1.02-1.74-1.74-.44-.72-.66-1.51-.66-2.36v-11.73c0-.85,.22-1.64,.66-2.36,.44-.72,1.02-1.3,1.74-1.74,.72-.44,1.51-.66,2.36-.66h12.09c.88,0,1.68,.22,2.4,.66,.72,.44,1.29,1.02,1.72,1.74,.43,.72,.64,1.51,.64,2.36v7.84h-17.66v3.77c0,.24,.09,.46,.27,.64,.18,.18,.4,.27,.64,.27h16.75v3.96h-16.86c-.86,0-1.64-.22-2.36-.66Zm1.56-11.69h13.67v-4.03c0-.24-.09-.46-.26-.64-.17-.18-.38-.27-.62-.27h-11.87c-.24,0-.46,.09-.64,.27s-.27,.4-.27,.64v4.03Z" style="fill:#5f44ff;"></path><path d="M258.5,54.97c-.72-.44-1.3-1.02-1.74-1.74-.44-.72-.66-1.51-.66-2.36v-.55h3.96v.44c0,.24,.09,.46,.27,.64s.4,.27,.64,.27h11.87c.24,0,.45-.09,.62-.27,.17-.18,.26-.4,.26-.64v-2.86c0-.24-.09-.46-.26-.64-.17-.18-.38-.27-.62-.27h-11.98c-.86,0-1.64-.21-2.36-.64-.72-.43-1.3-1-1.74-1.72-.44-.72-.66-1.52-.66-2.4v-3.08c0-.85,.22-1.64,.66-2.36,.44-.72,1.02-1.3,1.74-1.74,.72-.44,1.51-.66,2.36-.66h12.09c.88,0,1.68,.22,2.4,.66,.72,.44,1.29,1.02,1.72,1.74,.43,.72,.64,1.51,.64,2.36v.55h-3.99v-.44c0-.24-.09-.46-.26-.64-.17-.18-.38-.27-.62-.27h-11.87c-.24,0-.46,.09-.64,.27-.18,.18-.27,.4-.27,.64v2.86c0,.24,.09,.46,.27,.64s.4,.27,.64,.27h11.98c.88,0,1.68,.21,2.4,.64,.72,.43,1.29,1,1.72,1.72,.43,.72,.64,1.52,.64,2.4v3.08c0,.86-.21,1.64-.64,2.36-.43,.72-1,1.3-1.72,1.74-.72,.44-1.52,.66-2.4,.66h-12.09c-.86,0-1.64-.22-2.36-.66Z" style="fill:#5f44ff;"></path><path d="M284.43,55.63V27.41h3.96v15.61h4.76l7.95-8.65h4.54v.73l-8.98,9.89,8.98,9.89v.73h-4.54l-7.95-8.65h-4.76v8.65h-3.96Z" style="fill:#5f44ff;"></path></g></svg> 